<svg width="2111" height="681" viewBox="0 0 2111 681" fill="none" xmlns="http://www.w3.org/2000/svg">
<path d="M25.8668 576.83L25.9127 576.845C31.1364 578.494 59.4627 587.439 80.6739 591.445C86.0057 592.452 91.098 593.189 95.3662 593.387C97.4978 593.485 99.5917 593.459 101.494 593.208C103.285 592.973 105.504 592.467 107.434 591.185C109.676 589.694 111.449 587.153 111.46 583.78C111.469 580.957 110.217 578.54 109.042 576.802C106.651 573.266 102.291 569.268 96.2737 564.689C94.7445 563.526 92.3983 561.676 89.461 559.361C88.328 558.468 87.1072 557.505 85.8113 556.486C81.2032 552.862 75.7398 548.595 70.2131 544.424C64.6987 540.264 59.0557 536.149 54.0958 532.848C49.3766 529.706 44.5668 526.808 40.9748 525.674C27.0584 521.279 12.6379 529.425 8.5145 543.387C4.39107 557.35 11.9504 572.436 25.8668 576.83Z" fill="#FFD166" stroke="#FFE9B6" stroke-width="13"/>
<path d="M134.481 670.534L134.522 670.51C139.042 667.883 163.55 653.638 180.12 641.202C184.286 638.076 188.122 634.937 191.062 632.026C192.53 630.573 193.896 629.058 194.989 627.527C196.013 626.09 197.164 624.14 197.591 621.858C198.089 619.192 197.546 616.117 195.197 613.782C193.245 611.841 190.732 611.131 188.79 610.823C184.825 610.195 179.276 610.677 172.292 611.947C170.52 612.27 167.758 612.722 164.298 613.289C162.962 613.508 161.522 613.743 159.995 613.995C154.57 614.891 148.155 615.972 141.763 617.161C135.386 618.348 128.952 619.658 123.503 621.016C118.329 622.305 113.221 623.826 110.082 625.651C97.9502 632.702 93.7949 648.463 100.481 660.763C107.168 673.064 122.35 677.585 134.481 670.534Z" fill="#FFD166" stroke="#FFE9B6" stroke-width="13"/>
<path d="M1803.75 542.569L1256.18 415.878C1152.5 391.89 1044.77 391.415 940.881 414.488L351.797 545.322C200.504 578.924 57 463.795 57 308.816C57 156.734 195.488 42.2587 344.854 70.8743L956.032 187.964C1050.24 206.012 1147.05 205.64 1241.11 186.867L1810.88 73.1527C1959.44 43.504 2098 157.142 2098 308.629C2098 463.103 1954.25 577.39 1803.75 542.569Z" fill="#FFD166" stroke="#FFE9B6" stroke-width="26"/>
</svg>
